<mxfile host="app.diagrams.net" modified="2022-03-10T12:32:53.214Z" agent="5.0 (Macintosh; Intel Mac OS X 10_15_7) AppleWebKit/537.36 (KHTML, like Gecko) Chrome/98.0.4758.109 Safari/537.36" etag="xgIdxJaXK5FPGgQAjwCX" version="16.6.4" type="github">
  <diagram id="L_HxqP_HHTkd7RY69L5S" name="Page-1">
    <mxGraphModel dx="1077" dy="1881" grid="1" gridSize="10" guides="1" tooltips="1" connect="1" arrows="1" fold="1" page="1" pageScale="1" pageWidth="827" pageHeight="1169" math="0" shadow="0">
      <root>
        <mxCell id="0" />
        <mxCell id="1" parent="0" />
        <mxCell id="f4_6dcOlz2rCU05LCN-K-26" value="" style="rounded=0;whiteSpace=wrap;html=1;fontSize=16;dashed=1;" vertex="1" parent="1">
          <mxGeometry x="420" y="80" width="460" height="390" as="geometry" />
        </mxCell>
        <mxCell id="f4_6dcOlz2rCU05LCN-K-1" value="Actor" style="shape=umlActor;verticalLabelPosition=bottom;verticalAlign=top;html=1;outlineConnect=0;" vertex="1" parent="1">
          <mxGeometry x="250" y="-20" width="50" height="80" as="geometry" />
        </mxCell>
        <mxCell id="f4_6dcOlz2rCU05LCN-K-8" style="edgeStyle=orthogonalEdgeStyle;rounded=0;orthogonalLoop=1;jettySize=auto;html=1;exitX=1;exitY=0.5;exitDx=0;exitDy=0;entryX=0;entryY=0.5;entryDx=0;entryDy=0;fontSize=16;" edge="1" parent="1" source="f4_6dcOlz2rCU05LCN-K-2" target="f4_6dcOlz2rCU05LCN-K-5">
          <mxGeometry relative="1" as="geometry">
            <Array as="points">
              <mxPoint x="590" y="280" />
              <mxPoint x="590" y="155" />
            </Array>
          </mxGeometry>
        </mxCell>
        <mxCell id="f4_6dcOlz2rCU05LCN-K-9" style="edgeStyle=orthogonalEdgeStyle;rounded=0;orthogonalLoop=1;jettySize=auto;html=1;exitX=1;exitY=0.5;exitDx=0;exitDy=0;entryX=0;entryY=0.5;entryDx=0;entryDy=0;fontSize=16;" edge="1" parent="1" source="f4_6dcOlz2rCU05LCN-K-2" target="f4_6dcOlz2rCU05LCN-K-6">
          <mxGeometry relative="1" as="geometry">
            <Array as="points">
              <mxPoint x="590" y="280" />
              <mxPoint x="590" y="395" />
            </Array>
          </mxGeometry>
        </mxCell>
        <mxCell id="f4_6dcOlz2rCU05LCN-K-2" value="&lt;font style=&quot;font-size: 16px&quot;&gt;zzsms&lt;/font&gt;" style="rounded=0;whiteSpace=wrap;html=1;" vertex="1" parent="1">
          <mxGeometry x="430" y="255" width="90" height="50" as="geometry" />
        </mxCell>
        <mxCell id="f4_6dcOlz2rCU05LCN-K-14" style="edgeStyle=orthogonalEdgeStyle;rounded=0;orthogonalLoop=1;jettySize=auto;html=1;exitX=0.5;exitY=1;exitDx=0;exitDy=0;fontSize=16;startArrow=classic;startFill=1;" edge="1" parent="1" source="f4_6dcOlz2rCU05LCN-K-5" target="f4_6dcOlz2rCU05LCN-K-6">
          <mxGeometry relative="1" as="geometry" />
        </mxCell>
        <mxCell id="f4_6dcOlz2rCU05LCN-K-5" value="" style="shape=image;imageAspect=0;aspect=fixed;verticalLabelPosition=bottom;verticalAlign=top;fontSize=16;image=data:image/webp,UklGRrgdAABXRUJQVlA4IKwdAACQwACdASogAvQBPpFIn0slpKMhpbSpMLASCWVu+DRogpx4Qfxv/M7RTkvff7N+5f9z9/mzP3b8F/2Tpdz/evvxX5l9oX/L9Tv8U/yP/k9wf+GfzD9S/8t2WvM9+7vrRebt6HfVgdCP/6PaP/h3+/ykL5/2Kf7j+7fsP6y9g/26+WzEvav/NfxL/A9kX3aeFvAL9g/5/2KH7DgXvV/0PWh+38+/6HXZ6AX8r/zHrKf8Hnh+v/R6G0hAyE/HZyEBJYgZCfjs5CAksQMhPx2chASWIGQn47OQgJLEDIT8dnIQEliBkJ+OzkICSxAyE/HZyEBJYgZCfjs5CAksQMhPx2cfhrfHEc+8WHs5XvmGDzHHLwhQQgZCAksQMhPx2cfia3ckr/vfhIRqS8oqYiqBjy22K6z1AyEBJYgZCfjs4+z75olwpEYamlt7nmZRgOpFXz3Z/SXfpceIq1ZGn+HZyEBJYgZCfjqUyv+KiUWh2tycNz/7ssIUZCTf3IH/gnGJ7krUXvJwNmJXE/HZyEBJYgJtUxa82r0xzZy9SVnKZOeALq2/wB0weQpRtD7BJF/HZyEBJYgZCdRcYdjfpKopjoZKStXRFcaKjxXNkfrdTqPlrKSxAyE/HWXVu4/6tWXrooWAqJgfqqkQ9DATTH2cT7eHKOru2+02d7KjRQ+WFRCvq+QtcKyksQMedPEv9+N3pk/2tjoAn1b4L4wBLxPO/Ii6rFpbuNC1IqR9I5pzDEnvGEDIT8dl/BkPrde9Htp5284PP+JzsRpJk/OaOe6GlmZs0Y6sOHpcBp5odRJ6FHQlEayrosET6ou3DxMLZEatUw4n46mZXydhMmtJYwbxzbWjgpmJC9Ldfzjn+hjSkRlsJQbTYFGS3LZWM8qGyXueNuQsXiZl9mqHNxsnRaSYjIT8dl1jA+oBB1fge6JFC7mdQHtP6HKeQE9bC4kDOeEQUrmQYNdGqCD7qXxbUnuTMO+1ZtYcT8eJoVRDnfyvFysgCE3YbBUbdSLBmVdQ8fUTDUGHZhILQEP5yaDOQMhARRtTS3Xbryy+gsZK6hYShpBctglPXm0KQqMOzh6IFjFSFx9rBAyE+6whfTuMutF8e5AQaXDgFqFCn6ZB3OwHoMgsRxPx1C4qAN10Qwoqc4hEoGQn46kWwwCfVwyEzVg+4uO7CNfqbkSoWq1zXPmAX+5+W19QVufYxHGdsdCidZ78Lkt5xoUR2SJMOzkIAgOp4PpFyuhas3zybEs/Sy+r9jJcy4GNeWam3XO8y8hfNJUB9VyM4vRNg9gLDbQDIT8dnIU1SqK9KrJv0xkwdF79IeKqgB+q+/WPxQE9+7NAum/alwq9cT8dnIQA5dxGZkBx+FE6LYLMaba671gEKi8eimqfkz/+Jnmf5/HZyEBJYgbnxbdcT8dnd1HQn47OQgJLEDIT8dnIQEliBkJ+OzkICSxAyE/HZyEBJYgZCfjs5CAkrqtvo3mlSN0cwJNRN2mxaSxDqeNLTmDPsQimg7ttzijjOdUFXbRylMsZP9rrifjs5CAksNQm7HLYRgi4JcnxfumGkwuzlyCMIhHuksFWp94USPy6Tnp0wA5dEFc7wuG7AOB47OSaY1h8NGGWRnlmwEQMhPx2cg/+iykUpyVuGpEmAXfbfsIczBFr3dkHd1ScZiSqieZUHLADiVnzntDUUpli8SMXltEhpycU0FDByJvd308LlgTssKSEDIQEliBjvTy4xDXK52JSxKO8Ur7cNZGN0+V3OUotwJwkwgLuL6WrMMv+L0yTXlasImQk+xejf5xZeMno+Ii+Qse+jzEq7CSCI/jICSxAyE/HZhOz1Y5GuArXCI7xXwLkcaaByEXnIupBZ7LvATKhSftQ2zbB5mksZTrUYCpED7zBxWEbrw2zkICSxAyEDE43v0RERHJBF+qJOoYU2DGnXXPqHTHDJUw14qZ9jVu0jHsN50u4TG1QVqQjwV/MHc1Wx171DSQijWupKSyksQMhPxm14FOVSr9x8YejbMfhWdC+0p8jIrElzs8qm/rmgqp5YgsMEGcvbxwzqB16yKkdAfAZCdAAAP7+xFgAAAAAAAAHZ4KAAZAKd8gJJxzez+NHA1NzzhcvoVXcM2wQSvZIqiw8GjoPR3qtwtcSjpVXr2q5Y7c57AjFiLCa/JhRPJqCITEUDws2CJk5Sq7gpokWMUvyGc6gmvSsOMDxwCD82wPZaYh6QbBdh/Dtz0FB8sI2HC0RJZIKMB80Eq9xZ9oF4Yj1BfgWyLcxQsGmK86f1KOvzXGlM+LSky1/kSgRyXpiFZ96NobQiSf5AuSpSifwS+Rc4KQNP88nfl6sjDyOwoRCxSsRoiN572Hsajb2fpZzoBt5m3BqQk/PAFh5/yxjzIdWEHfqMf7BEejYfXu9CfmJUsMLyT1dEtxilybZAh/lCqcLX/MDnsf6BdYdpQcIlhohcuO4ls8PY71vkjEClqox4WRzFCr68Docb0BTHKFGQ7BmjAAK2XdSXnutSwD7oBuAVdUxXhrgos7fB9UiDIyAfJulTZEZ5CVgEw5vNuHhH5aKwKfXTr8VEcMGA97KsNU5AFCEZGEZKKVfqqAXE1G98wBEZX6DnkcLrgIwmKfTGyZGwBrLP+4w656+5JHHXcvK2VDLQJ2uTsqUmfQCQsWVXvZYsk/sDrAJ/3GKDm3DrOUQljf+551fWwJMkPz8G4LHHBrXHgNfAiywhGIPk+nONPSiY3+mkJoH4S9zG9/eCJnSG10QtMxE5zuUHULWvBe+9GVrnMKu/Y2vtWnxn1Na/ysan6pFv68C9fBn4Qpw+r2n8UjVBgABfga4r8YWvPYXVGQ7k7xetMgf47yn0hFba7ajAhNZcNifgNGqg6NVBu2drP/gzeqeq1GELXuvRKM78vdhejxA1ZqkK1WEFviOhWq0zfYdcWS09hAOeEaCzLKnEaXnzyGOJnzV5W+kh0y+7WA80tYMcaeZw3GK0deYr/uMejPHJ5h1PQ+xaiMMg5IXri97RGFeVMt0V9G+/O30QZeEqNwBOi1LwnWl0CHyuxSRw5iFUb5Oq7eRbbNY1UTl2aix6g9f3OJFCSmqIRYzigixEMfboKn0A43/9MA1YXysTZ3peLET3cSSSRltqABd63eYk/hdHL9oMHx2KtcFwufHrGUueFw40NCk++WbIdvipPWk744OVcI7RuDxoV9IhRCptMQxDr94kCB8tx0xh9wbJC8xteV4j0snQwOcF/AxXb1iAdxKMFcfqfAlO7M8xl4ABzlsJPfKAYYOd/whjNY8lgh8ik0kEJSDsa6L07YJ3mrpvqSHfaQq53aUWbLGQXln5VyHGDQveIXTC71aec/1wmojMhQENep4tVjZuI7cfRIKu4TPQPxCHBaJ3getbrfcasOU02bfa9zda4rWeRDUs0Fo0jrl8L0xVdiSrVPuTiMzBjWlt7UUtQIa0XY/ek9Wvdv+al7iI+sDynOfUvmdoQ0dhId7NUJXm+APOvmMK/sbskozWM2o8Ab/PdynZhJR5SQ2mDZoL5Z/Ic3GOR2D48/Q3xeLSYuLwNdV0DXdx4NNUMrSu8dhfRtByouyan2dF8PV4p2TrkAB1Itw+AKPLXA59akYW+8VAywvqWjx2uB1w022bhTHSYBcjad9VRkJcYsaI6gtJBSNmls3An4zW/WfydAASCk4WX0YD8c2dvKe4AnpR0jA0IE5mKmjz/yi41L3kRHWUB3F/Ft9ZkHuOe4u8obNOlQCPYTwYU56Jni2jS1RBkB5h6a4kSiPatCxB9jJroIg8ltLtVR+CjWO/gwmEeAgOLNad5H8u1G8E22w7/YdWGLfkpqeSIZWVYoPZJgx7Nzwh1qTnWIv7TtizJQl8jcxGqcK8caqzz/ujm+h+5HzbWEElxfjYT9s5F+yHyk5j/IldHWaCNNeYOP4AjbesexULyx19CxFDIl25CjtsO0vVIgjob9HZofjlWfyTR/vlPQEC4Ku1+uQVCpjJ0B0EHm8EM+KpSaSanUNYBx/DSWJu7UrCBp+TcJ0f0bGiJ2yHL1s/ZCdOMBJjvcBxZcXj+WGdci8A+cHl+43XUf2KoXjcABXbCWal05qRkPEQLUl/3/V+IOTLi281RXZ/WjJ42Hk7Y0ww6qnxNhpswgBzwY5rR54RysC7hRT625cT5cAmiJpftVBuRLFDhIbhX2cYotq5vzbBUipGV8sHIGkOtIE+rQmIha5iQ/cGl8a6QkFWhFrltvb2z3w+1i8h0KgqrcJesGbSm6Hgm79Mlgn1u2tPUhmuCv1IgD9Nu1cwz+vWZOR9W7HBBVnNwBdsY94eRhosalieoPWZ7HAect2XWGWQABEsAkcoHssddW9b21eJZHDa3c4g9asKX0uch9iqehouMQpT8kGdetPq1JY9uJ5UsH956bhUkWcTnZPV0JUGi6ik3kS8N0xRAAglghyGrmhIVhtaQ3DnePTMuJ+cw2tALcW6XfDMNFGGxaDDZZW9rXmHO9j+C8nF3v1/70RdJp3K50P2hItv3jjUeAYhNuLmwVNoBkHKHVNoHOdbousvAah8CUnj4WkDsyCqrldYHp5PKXYna1s5DIfve7G8JCKtVlN4EC1WxjNo4vsvRpfH2lqfFJ5/B96PJrkslM3C4wzbkYxYuHNDATv5AE2HS6d0drHYQr0b/W5oaKMjTZZt+HZV+PesmUKqgOVdVwAywi+ft4ppJI9zQJunokidcGwoFrDHc5P7RBSgvP4GBcxrYzLKFFuO/AYwNy2FhV0pqNCfSz/QxRYfYwwlhNsXklK2QYGagiNhvwDP6fQR40eAw5NZH0gvslWepv/uaru/IiVOUdo8oeAVWVbUn9t0auA8+VglcgEudLWc23rQqLskPzteNsrBBsn7sH4vk/Y9Tf6BmfMcgfFjo3RFb48+Z9SL3whdoxFJ176us9zatqXjyiDZ5du3EfVIwnHj/2lGaf2I2alXpOZpl9zgeGPxd5PjJRYKxa/cmEV8WbW4NG10VuXU+Jln7qqwPBkzInuIHTxze4waw3m84/m29rBu7m3YSGDoz9RkpVxCki6folf3fCu2mD3rAR4z8W+WYUCEbn7fCa1xP6A/22gVncWBaFD+sys3Zb4FbPUOuiBJLHwcpmBT99PKzfK1jjp9g9AoHbXBnOB+/0OCyFkRg//A1kOty9GyJshvj/N2dOv/9FdFeTd/AsODw2bJvmLyHq4iRs0+wNHfIHxqyqOKceki/DuvlvtjpNrk69PU72PISNPZOPYAAAkR6p2E2BVqFndr+wVBapvc7PzAu0Xb7rQ6L9z9SQfR5vC7kF0oXQtHhz5IV0Cnbnyo6wKljUTLD2KjXIInmo6SEaVFxyveSR74bphdlsuUhtwfLoie/ytlWkzh0yPuQ31sPj8WbCGzKvbq79PgLpvwdOW4YWVsoJNZzCDFIsV8fTSiAuYhHHivgqdNSlJXx47gI6bznWg6wCjULwHDE+uXt1JDkO5O4C9DteUT3KvJJ1VwEEZA8sTL4i4FSPRW4KcuMhycjixMIpfEfguJA0YabxMcvP+SXgtMM1XkLqxeehpqcxDtCcAB4pbZ5+HPH564F8pn45zdZKV8LW2FnwS2JLYJpqVkxVy3nThneCmgQWlgA1DozBNa9LqBVqzflXnIOMRkoKp2O1lQIiZLp9IuHrwdI7nIn3jSy0F7CAe4L0q+moxMrr2j+HyPv4Rzii8Ko/TyqcYus/dm52Lby12KZ6Mm0YhYYJzV/BMqK4/6f4vlIc+qQDAAXKvHHb+x40BzeikiGxrQjIW58hqrGYON3YYt+er6oN+8+4fIw/kJ9lEgUfBuXh1pJ/2fdrB/EA/DrGtVAw9q3bHW+g8QDK8sXaZmmp/7oFsgP8Im8hMTRAktDEe9NSlk1oGG1D73l0Ncsag5mouCcyrgE4l+j75glErRz2BHYTdNM3CtuQMrk0R60BkTMwAoUEJvvjznONFD1ADDz6tlvUXhxp0ZxZJLLjYXaavaGgSeJG/q9nVNCTH6YQHDnKCBd6cNd5PRAhW0qAg7q41H/POuW6c7HO/d7QZz/Z2tyc5fbepsQ22wiIVS35KJafNs5A2wQLy9GXbVbw3BgCycUejV0CIhYF22uyKbbwkPLmaO4mwKvkmo48goXZqDvwVX4frEbsEayedaVMu6e/FprpHXuD3CkP3vLYHxRXYB5oxo7QQpr3AEgFQ2HCuZT3BrsSP5zx+SyCn+es5GUfbbmCr4nqkaAaLfPfAagb+1Pd+0bNlU7PNHP9HfsnfbvtEXZ7XoU87Ph/A/vSaZN9PWI3VUIk6vdQi7HuzlbFLo0BQTOLsDKsqviy6jRu7cHyQaBr7DnZVp8HlfV13cy2HBX0eLtAm2LsNUqWJI+pxCVEQ4N2EsyNBW3skmykFW9CDXk/zJwdPwZeK4ANtkUqdgethApusTwGYYG8ccKrDgQiOnQfKWt11SY5ULDxpBn7nTBqu7+2KJdFx2WPDe/MEWSHC9myJgJj1I5IE69uOA1964m1ueldazOU8t/XFU35Me6lcZjg8KT0Tkn4DuFbAbh62O+Dadf99ppivcm8aYpaR6mnDDws5PWeTIUbxn6w/lqq2uj68GFUeZ72tWNYNaez+OvGZf7EwUhyZvvZAjV9vxQMVYjnx6KHtzCvb9riavMf0w+wRVRIUEGJeHUIei1wuKpHtZZfy3uQAlKTXFcr9jCNCJuFslj/ASBVH6ZafGHJg4V9sTqlQ4VCj+pWRzFxh+Hxm1zS2jDGqwyvtZgkn/2UFa0korHP6umM4RNruKHruQoji/03jYF+icDlLDujsVKuSMdB4GFRF7EAg+h4dBs98yJUMG8tq5yT7U2vT3xK+UV53A1ngFyC7/krvdUcoSNRIP+uDJG3gVQn9Eiw5do0tIuQnBgO4Ms+VEplhDvD4b0eWBrG7kcEXNT39nSz8WWlESjPqTbo2WMkb0O1PSsdsclxLV4KmUuLeI7m2S7eSE+VVrUFExRf9eP+r+5OoBezV42qSmGjQEcYiLPwPwHsNcheDrtfpjJFoiwk70x9bT/M+hx62n7uy3O7mNrDNLFc5wwKnTIZly4AZXqIHoV+uhfCqnl2bfZ2buz4lwgxBtlfDPqQ1NmjbVR1IC8KHDV6L+8+V+WMCC/9XOJ14agdU4bqoEjlrXddLYUkKFFQ9uxukYR1wCW914akiDlApf3MANMUUx+S4tu5ASYoukzLTMd5UV4hRRjj33SN4XRbqGJGeliOOEwOKgL/XA8LKvAmo1lOx8oe5BW/ycWFRWlEi/Og6YsfYlrO2/eLJ3qhlUXMDZAQoX7ZO1y8iVEU57fyAAB7BKzlWWUthvXzq6QZEHK2VZ2m1561aHYzcZHjOTiJEriGSr8jS4r2NyY54jc/rLxRDAgh0iL7vqPrsKahv3Wx495S1BO140pLT8g6EWhiTJSZOpe254XPZHoC8CyknBp/eupO8AvlKQzvoWiHQAAAAAAAAAAAAJLcaHNMODcvFqF41eD9JeBNLDSzBDjSggNojU0iFbvpeIts50PHPwYwKBVjHUm51MF1eg89HM2Mgi7BskLN4NDHi0foK8HANV57jJatpnfoQoD4d3E19tc1PTe0oYMxCNp8Yn0ybJutMgO+TlLP/y0r+tI0Rn72zam5ObKvhhUhXCMzXNowU7/9e+/dx0Bh+7UZRNkyy3rcegTON9RrZxd13+7btLnzGp8ZEsqxp7ukYzq7soR02xpDeStt98dGKqlSqQCjF4MUSfeAZKSEklYhMCWsK8DxAHj69oHwnnMIly5Z5pYJK56xGUhPg4Yl5v8xmoGWOdsW1t+GwqlZpgermsVbeTtfTGUZnRkrsI3esNAYxgZOK3N7eRNj7D0k94333O2I+Q4ditai06e4H0HcqdJsoBiJx7yuU7EVPSLooN0o/BQPCUbITIR5qnR8dX7vGTZK2/0632IXd9OZcEYF+aBuPx4gjZ9Y7xTUWcGNH1KL4YJZw7khNtSOtkwPOXblkDpiZ3SNqdlCe25BFPZsoXFvJPFtZ7rXHsKv+w+F8k04SMsoFQfnDg96buB+t2GkMyDkOB/LHuAW1OBJlgs0Ulvma8zJBQokoAIA6kyqd7dlsRqMi3ZVJt4D+IFONOkPKfIdI4Tq712NUwvx7C3z0kk+3DJ0zGgdAoitk2Y9UVTOadj9O+hVt7w8A6oWQiuZnNJb9ne7hNP1N8frLG2mXyh3akWyTHNx8xg7e1soBtjvEX8GDVGG8EFFUzeub/635s9FmjDuPfxROSamMoPYXQohlU3w+di+sPWnIhHPwzzJ7h+OgfvXm2jIeaU6cp72VVV92JBp+jw7Ys8pYAxLJtB/lYDuFiX20Jk7ZafbKPvT+2BiY4d+Lbv+4FTf8GbHr8tBfO/4udfX4aOC7hwPrnmfRfY8muuH/0dchZzMQGFIsPfDA5fl5xs/1iuaSl6dUHSlyR8bswZlGoA4vrK/SUCYDgfFM5TnnnFzu0SUplHvnYbbFpQs9nEaxIZ/fvYvQnNe5DdcTwrlxreF8kPWO1UXH6+t97pbu8DUE+AMzJ/D96VWdQovJ+UKOx2JNn2QoouWlXrfCD70CTFqCvRMK4IgK5NyT63lN5/9Oa+NtfGb/pjskSvUt/g+SWcmzXsyMGm35QFqczPuIzdSZVnk0lnqeeykbXnODsHhhlqJErejZ+ipKfC0nAgKAMpUvxwVl8EX1rzsNKjhBBSVD4liW9nk1Dtw5eZ+tlQRumtdYBIAN0dgGlmd6CpZBUZiT8OjJdC4iHs102USFqhToQRSYEhqI7C0JL6PpUS3JJw9zQMl3+R4Xw0Pcox8tzXtib28PZ98I9J6AJZBHJQ8GmZ2TZuGk2wXauqWJPKFq7zcWh8psFtC96WiqGI6wzyMfVQMJ63VlPfSBD7qeoqvKq8nEUB09lv5Zxb3zVnxQvpy4wB7++08c7syV+/qi9U9mO2+fnj8v+0mYyahks3DxLmIAo8bkU9oKRbf5C+z9mLpoXnBXO69Zlwmrcp6hNUff0nC8A+9nOYzL3l6fKY63wkVAiR1VEwyC62iCGdxiMzMuIostEOeePPdQCfOAsEbjDuscpAg+LTCltWu7TItAwftixgRl/ryTA9sKDlFVPTN+5oGbaUPJPQr9j8vwt+GsaHr0Sf5rZ/23Oir8vluX29tXm71nEG2AjfyFJVtD+VRDznMHBvBF3NNgROUUF3nqfuXRF1Ff1+yL/5HWb5x+Php23ndJDog78AYy8AzQCND+HP4ewLS0TQZ1LjPYrAvMA2bAyZwHtWbJ24dqvqWXgDPTf+q7NukvYdnEjHu6d/9XMp9ognsLRNcHok09emehdt3SiQvdrdn6xG3Mu9qU+m6gm7xPDxbEPITZSQj6y+G+HYQVCGU+136zqUudlsuT3Z5dkLxAnY7KoJP7rgWclfwZ73y+8AtQW5uVo8uwzijlIa+dYjcuLSb4xslen2dxQCLW7vtPwoee3GIrmpV4IybVvC7bFw9XBSMS1J6+ci70AEPDs0Pojuh08rj3Qt3tiTcGJ3px2JUtx0yUn0Up0d3SzSclWMlmv8HCv1izm4KE7GIycQ6se3W+4tltijwkE1uIanJd0FWnU4QHL6uLbb/c3mEXV8ga6/A/KYZfQor4wlBzKEb+rT5oFOHXg8/14gbluDLo7iu8h7k756JST+agCo6P2e5dQlbrU7FaTEz7e6m5GrtIoM+LvQocbZlNKLLWZ8GceJ5Kv84g/3zNWLHJfyE/V3itabWqpIo6htplJUbOmpNk3SVZ5x8OAHafxV+N474xAmTIFH01olns5/QaiD81ufHMC7k5ZADJwlHOYQJlqyj1kVsRKvLpSGzaIc6bdttBjTy1fTI1XyaydvREOY6WMZLGyXIpdOneRHH3uNSNo9aw4p054V44+dHZsO6zpdYfAAJgCljn/lrs8RhEMXsytB4eU3aGV+y/N9qPe6IAvFNcqEiO3f7OHZAzgR2wcOXwq6FC8f1tA9vgZ7qzb87S81fnnN9x1o2bnREFWe7y8M3baaRWnlO4qqXfrLuL4FpLqzQ//PT/8gf4jveZp1OmUwSB9C6Td/m+/fmD1URIvxMYo3JnlkbzoFfdvJz08OHHBcGBcKZ3bAAAAAA=;" vertex="1" parent="1">
          <mxGeometry x="650" y="100" width="120" height="110.31" as="geometry" />
        </mxCell>
        <mxCell id="f4_6dcOlz2rCU05LCN-K-6" value="" style="shape=image;imageAspect=0;aspect=fixed;verticalLabelPosition=bottom;verticalAlign=top;fontSize=16;image=data:image/webp,UklGRu4OAABXRUJQVlA4IOIOAAAQZgCdASosASwBPp1MoUqlpKOkqVWpILATiWdu4WZuAbreceW3d29DIIwYPiT5kfeM185H+bfliO1bQ4L0SJqQH/o9FcgkPEuoIeJdQQ8S6gh4mCYVvIpP7iRShZo8mc5hEUlPZWm+Cjz2fG1QISc9EuoIeJyoDuNfg8ACh3XkJcPvrGqbhFH/UyU91hCjfOXx80UiZvpBjaEBLqCHidwyz/N8XzqABTkAdhniY5LBgx789qhcnFiFUWXdpJ/cSKoL0y+O/ChjOy+TBG1JKNBtnXhA4227HvyqPnmYL2W4GXA8S6gjo/56kRSFZMsOZf/zHmtuYQd1nVQMgwr1Q4HGZdNAr+y54kUn9yJvWdCfD0eNUs73UwEm9uhNF75/Txq8jSsIscjLQIpP7iSI9lct2qNDhYB7XSQ7zZ4toX252Duopd87jipvoOGXfTEnn2IF/V5IKyZPO5eI17v9lFde15fxWdLiC8eBIHPefyOPC99aXvCngoarEpcoggmGMYEf41R8qWsGUrNAgykNgSvb4ld4+j/KIjss1YpcEJYRpKSgfAhnpbONu7hMxxGlX2LY8aU0+ByjfznAZUsGQjRyptqTw7kvW3lR1iK044O+L9jyNdLcaaSaVTtS0ccuuhSIXvynR33/XFyWpNZbVxpwse3pZktwmUk+G8mwVik1VvoU5xkjvz+ibYMLozUZer0cNvPklPP2hq74nztNE1Zc31T5mVmW+viSCMirKVyk5INimPolRLZbsGM2YFT42s1+Zobkdau484fHiem9xyK57tflXXii7l/RVcb5IkdFf07LfZmEMOtx7bEfrMC2iFLhg89kkUxOzhVegsBgxPQ9VQllkFdMB1e5nWSyyu+5i9o+nmY5j1hFRwcpvR+683wuSFicRezaNDoT0TcbRCjnoJB/pUOzUs3NPjoa3SyR1AbDJe7MSZC8EhoWrU35e0oBTAUgMPhYYJHCRbBk2pRywxxZ4WPulgl2pCSTg/2rjr2cWo266JkJBbYGOted4x2OkUuofsT1PylJgDH90nigG5X13TC4Cg5YYC8vOHQYvbRIHhSm5IT3T0hINavPh3LxIpP7iRSf14AA/vzW4AsmiUJaVlc5eMXNNd0w2taAhs9rEZWFjailRpgr/2WS1XeDur3GY85bhc+8SWYyOqnrqluaOHi2BY8vd7qQlmc7IzHF87RTsUnjCBqx4beoB/Oa+YSIjJU5ViKEnMEahQwWYSma+ze5YA1GCCLX+pYpdQuWA2cwjveBm8xPnEuxA1xot1NOePzr+6N70Dc6/+Moi1DkSSqsDm8ozEWjIoGEB/XYrJMu0jipDIBGlSw7/TQwSV955Iik7AsZ6WAQDdMf23tWCqQBIXdV2ExLD6bA8XIVIRMYBOOgputImwmXAgtNdgXNZvuEI+oTGxiO0YfpO6rk+Ozffr+cchN5duBc5ETpIoLtWb8C7mMpxCukqXk+9jcsG0Dff3guiikjgabTQ4UfsDZVHj7nEKZaIzSy6ISiOhHqM3XGvyHglgNh356ohxlyPqbf8Iv8M1qbLRTlS8Qlx6p7NnHCRVZ+G34LqfsB6ypNaRADT1RNVP7c41aed/fv15MoQZgKpdse2oDRd486u3CleIecpjVydE5+cJqQ09++63xJXbHQF3JZldLZU5wMPJuvzFb0SXVCvO16rXXgHCdvQ8K2KlQQ5C5+Z8WIfuCJm7f8/OKSg2GRJHjGnBtpIgbqGGKTuEGTd/nuChdB5yiXgPAxa3LX1ws39LlSfsNPYyGztMHlLeZo/E9uuJ2BgdKo9NA/zNpjndnvU6JYOgzI1tN/2AJ5k9BZ6sGeuXeJVCDd6fCVltPWMLfUk0NxWLolpA2cPsXUHj9vMrwVJC7nH8mqxp4PJTTuGDoYVr40KWBAZEMlUHxTm03Zfok155i1+QjYyMe6tRvSP4FbeDiyOSrti1vSwCM/BkbCbEV4pdiarCXpfvm/PziJFKiJ8Vq/DnJCVESh89ppxhsl6LeFqbmJyCAdkUBtCVNzkhsSnOfVo4wN15ZfU/m2opHI9yJbhHLJtRxFenqrPnPrqJ8Pc5ZkeyhAIrcTIVJ15gH29h6jG6v0KnCf+tkKcaDtVy7u9r8cwqYPvNEziwsoX0bGF/rn9+t5AlkIN24nvaEcM2lnUUldtM+4rNK1TfUnjdzHxVrXPieRNmZffF36qpfMbOIuHwNtQlUfc3eR4uOnyLavtmsqFwZ9GKBOz42ikNJgCZHJCOW4zNFLvMAOjGni6yBtBVanSXmYBhEBvdtDx4b2ST/spJz8KE00XaBRlhCh0JC1Po93g9H1J+JFMW7ypWTtqj45H12BDAJRKw6k8+e8WdIg3CaTNKD76yrOZ4GblNS+8Y1U2vkFlJ98vOm0gvpjVQY07+N6decLHeAcVvJP7XU688UnzhopXfL6+YkNJsH6GOeps+H5MC4nLvHgePlcaeTa3XAhoNVjLw/W9XHZNnIb4041UR8YJWt2YVJHINzBio/4mvgXhaMPHTGEDt3kGLPWjY3qKSEiPfWhoLze7I4ZpA4f3m+TR++bX65Gh21CfzZrdOrfOjESZ3EETXI9hsJUSu1Mu58zdNNTp3jUK7Y5kn52W14a8XXECBHgr5rcLGr/MWVDdsqrMQW7qlod/b8Xz1DoGvFqvSvtfcrjxSXqfXdyJwa7IpXC9VIXAHoY972VZxMDSlJhIT1MvXDHKPVeoams7LsZSLLA9X3z5Lj4KXckgYRf5L+YHBOhvKeiB+WIP3Wimv8z+z3GumRUvFmjbjwgKK4js/hPR/3n16hDz+zaIisTRD67bu01aKrsk9YEY2egkFWW9z8FM48JyMCqId7MuCssrmeWS3KmXADG3HRHc/gkOjFmlzRe/Pns48Ub44Zmjd88Qnq8GRtXRLTEKKQkOeFx6cU0VWJ1gY8h+W7fzAZcPcaMrGqY5gWNaVno9+UQVAWHkG2Smt4Ew1JNbZPZLLJm9rqXt1D5VCvEGvbCo6a5RxOnTZGnhp7Jq47IuH6PLdr+ryHUfv75PL11Ns4HDnG0Rs1AVa1res6/GxCZSBUKLtHt1zlIit5DeRv/nI6UWcqwVl1LKwM7LMUNZYuE9++licmei9d/bdtjTvfDd5xKnfk4ONoi/ZxMecgHqrX7dwGbQ2fLZPbp8CRhmsyoMHUDho9JDhOPzxm7MQH71PCP+yNMLUSk/LgmMDJbCrCcWuGqhApKrTnuIC5eg/GsgWlY1rR32zHqbdBgBtlCdwyB83pS+xTPN7fiC+jXA6aOaAORLzOxkdxC67a3hGgC0a/FuH15SivH376RxHOi76zgakelxS74eI3v4Y096e4730dnLy1+aR56o3ilZCjt27HGW/Y2wvPSusLkcTB9YZZ7jPeYYllSF3buB/t38qHoQtx/rvkrnt2TFrgrl9HPBjPWun31mScPaHgFpzpk28tw5CYdPqWYjCsNWCY6s5ANKCjXUPkv2jWgRm8/hjPCOV//VXFJl5DAXHTdmMxe+MV6l1eeGoJV67spbEjaLfHtz5m4knKedwf583mCn6ZvDOINEXTHVdTYerQxtXECiWsBW1AhyWjTMKaFP2Sv7M4Gu3zwuJv3NvWQdR1Hdf+yHtqxVc1tJbLfUGVVmp+H2xLZeU8Yuc5Y1082TWqhD+CV78s4FGTgZJaBAjhOEEoKbnafo9aSDCyhPdEBR+y2vMCNVQRFcvT8CA9KK9z5UZ7bjtLGRusO2+hRaYx5WxJXltDC+A5CltOYEATqD7vkVx9mHMb2aOfwSmOv5oLKCgMV4BEzRTaZL8s8ewo0yQSoM6hN06ogPVfSpRfudd9NQe8YD+UZKlfOVjAN3reNlKVmvcZp59BcLtC1dpULo3g+rjwoW9APSNb7WodLDElfT8eNwHz4DXoBEc+88bd4We6CF0FPA2Wa/TKmbtArpg80GbSgcC839tBeGLwt6oW43e7LbWPymKg3Vv2SSoMO2tg9Lgua5NkvFKAJ7LJtBJ8gqXC4/TR071lAcrITL+lWTm3Gmbz23IzqkglvZTggQmyzW1O+zEkt0icV/O8s2Ci6wesfvdmNLAVyYI3kpJgNEUgM68I+3JWNIYLotw8ZscEBlZbyLlwQK/ERhi3L6H8LVpNMvrek/aui19ghDYiy1GNDTL1xv0rIok2aqf9ZSEXdKf2GEfPdZEraTnx1YjnPY7w0E7SZY3xkxftJ3mVy+cIPUgFvMMnPgGqhH0R4R3EmX8xQd+WHU4sUIIJ6uI0EA3k/BCX494d7NB2HaJGYMwmaZzsKjPfdXgcVDh/Ay5/uGsco8xi9zFjNFl3zT4DG0/vh69JS5m/Tr3ZRO1dcx4UAN6RbWDMHwqeokUZ6vbI/3NzX9a6WtYBH35VaC0Pxhi/2AZAyxv0FaExw/8RqKE1Mm3n2aDkRSUG7cLKXvSxdmcoTms8h7f1gYTm7eTYshg4sBqZNxhQ2oYnnswYh3s/uMifKIhsCWmKsS7UssZMuC1rNgpd1gLM6FrBHau222MZV9e3XiSzWwsPMRrtvv8wDHciJTM4V+NVvrxaWBVJD0GFvDa5ENtyNvk7sxf0Fia9GnCUZGWGN0sqRdjMbKPePTiFX4+KfFufH/bjW/36lUjTsZ2i/BTLOtYa8PjQ3o6VCrP/cjajUltYqWDyofXIf8ZC846kmNtJvdv+AnihgVBbF9ltzFcMrR3JEXx6zIkN876HeaCGTSF+sLy5JQlyZUfiKyFlDBQFIdVDJHNNgHNjXwbC5gC7o/SaPBqSf+pOLjEEakolxVulQadxwumg/rL4/L2jsc+BCU33fdt0hAF581cmaoCWOwA9P2WWfAHO/TSRYrbJGDg1xVQsPrFiEU+oBzbBi9cCAwoPy5oa7nxhoqGGqjDL/NCincmkShCCIMfpCWn2HdQUZhZGQiUNEIPWTSIzU8AI/00L9ZypmgX6jWuzUtr0gc+IMtHNbs3RXBH/JxtPjdqVDeM0A6BnZKIDtvw5zNbaeRjvu2x0dYre9pu38PcByZNQL+YhrqLHyg/og4QAfhBLmAAeVRZf8s36dMIIgGSAHugVdgAAAAAA=;" vertex="1" parent="1">
          <mxGeometry x="655" y="340" width="110" height="110" as="geometry" />
        </mxCell>
        <mxCell id="f4_6dcOlz2rCU05LCN-K-7" value="58sms" style="rounded=0;whiteSpace=wrap;html=1;fontSize=16;" vertex="1" parent="1">
          <mxGeometry x="640" y="-260" width="120" height="60" as="geometry" />
        </mxCell>
        <mxCell id="f4_6dcOlz2rCU05LCN-K-10" value="m" style="text;html=1;align=center;verticalAlign=middle;resizable=0;points=[];autosize=1;strokeColor=none;fillColor=none;fontSize=16;" vertex="1" parent="1">
          <mxGeometry x="565" y="220" width="30" height="20" as="geometry" />
        </mxCell>
        <mxCell id="f4_6dcOlz2rCU05LCN-K-11" value="n" style="text;html=1;align=center;verticalAlign=middle;resizable=0;points=[];autosize=1;strokeColor=none;fillColor=none;fontSize=16;" vertex="1" parent="1">
          <mxGeometry x="570" y="330" width="20" height="20" as="geometry" />
        </mxCell>
        <mxCell id="f4_6dcOlz2rCU05LCN-K-15" value="互相&lt;br&gt;兜底" style="text;html=1;align=center;verticalAlign=middle;resizable=0;points=[];autosize=1;strokeColor=none;fillColor=none;fontSize=16;" vertex="1" parent="1">
          <mxGeometry x="660" y="265" width="50" height="40" as="geometry" />
        </mxCell>
        <mxCell id="f4_6dcOlz2rCU05LCN-K-16" value="2.3分/条" style="text;html=1;align=center;verticalAlign=middle;resizable=0;points=[];autosize=1;strokeColor=none;fillColor=none;fontSize=16;" vertex="1" parent="1">
          <mxGeometry x="770" y="160" width="70" height="20" as="geometry" />
        </mxCell>
        <mxCell id="f4_6dcOlz2rCU05LCN-K-17" value="2.5分/条" style="text;html=1;align=center;verticalAlign=middle;resizable=0;points=[];autosize=1;strokeColor=none;fillColor=none;fontSize=16;" vertex="1" parent="1">
          <mxGeometry x="770" y="380" width="70" height="20" as="geometry" />
        </mxCell>
        <mxCell id="f4_6dcOlz2rCU05LCN-K-18" value="创蓝" style="rounded=0;whiteSpace=wrap;html=1;fontSize=16;" vertex="1" parent="1">
          <mxGeometry x="640" y="-140" width="120" height="60" as="geometry" />
        </mxCell>
        <mxCell id="f4_6dcOlz2rCU05LCN-K-19" value="其他第三方" style="rounded=0;whiteSpace=wrap;html=1;fontSize=16;" vertex="1" parent="1">
          <mxGeometry x="640" y="-20" width="120" height="60" as="geometry" />
        </mxCell>
        <mxCell id="f4_6dcOlz2rCU05LCN-K-21" value="" style="endArrow=classic;html=1;rounded=0;fontSize=16;exitX=1;exitY=0.3333333333333333;exitDx=0;exitDy=0;exitPerimeter=0;entryX=0;entryY=0.5;entryDx=0;entryDy=0;strokeColor=#FF0000;" edge="1" parent="1" source="f4_6dcOlz2rCU05LCN-K-1" target="f4_6dcOlz2rCU05LCN-K-7">
          <mxGeometry width="50" height="50" relative="1" as="geometry">
            <mxPoint x="400" y="160" as="sourcePoint" />
            <mxPoint x="450" y="110" as="targetPoint" />
          </mxGeometry>
        </mxCell>
        <mxCell id="f4_6dcOlz2rCU05LCN-K-22" value="" style="endArrow=classic;html=1;rounded=0;fontSize=16;entryX=0;entryY=0.5;entryDx=0;entryDy=0;exitX=1;exitY=0.3333333333333333;exitDx=0;exitDy=0;exitPerimeter=0;strokeColor=#FF0000;" edge="1" parent="1" source="f4_6dcOlz2rCU05LCN-K-1" target="f4_6dcOlz2rCU05LCN-K-18">
          <mxGeometry width="50" height="50" relative="1" as="geometry">
            <mxPoint x="300" y="10" as="sourcePoint" />
            <mxPoint x="650" y="-220" as="targetPoint" />
          </mxGeometry>
        </mxCell>
        <mxCell id="f4_6dcOlz2rCU05LCN-K-23" value="" style="endArrow=classic;html=1;rounded=0;fontSize=16;exitX=1;exitY=0.3333333333333333;exitDx=0;exitDy=0;exitPerimeter=0;strokeColor=#FF0000;" edge="1" parent="1" source="f4_6dcOlz2rCU05LCN-K-1" target="f4_6dcOlz2rCU05LCN-K-19">
          <mxGeometry width="50" height="50" relative="1" as="geometry">
            <mxPoint x="310" y="20" as="sourcePoint" />
            <mxPoint x="650" y="-100" as="targetPoint" />
          </mxGeometry>
        </mxCell>
        <mxCell id="f4_6dcOlz2rCU05LCN-K-24" value="" style="endArrow=classic;html=1;rounded=0;fontSize=16;entryX=0;entryY=0.5;entryDx=0;entryDy=0;exitX=1;exitY=0.3333333333333333;exitDx=0;exitDy=0;exitPerimeter=0;strokeColor=#FF0000;" edge="1" parent="1" source="f4_6dcOlz2rCU05LCN-K-1" target="f4_6dcOlz2rCU05LCN-K-5">
          <mxGeometry width="50" height="50" relative="1" as="geometry">
            <mxPoint x="320" y="30" as="sourcePoint" />
            <mxPoint x="660" y="-90" as="targetPoint" />
          </mxGeometry>
        </mxCell>
        <mxCell id="f4_6dcOlz2rCU05LCN-K-25" value="" style="endArrow=classic;html=1;rounded=0;fontSize=16;entryX=0;entryY=0.5;entryDx=0;entryDy=0;exitX=1;exitY=0.3333333333333333;exitDx=0;exitDy=0;exitPerimeter=0;strokeColor=#00CC00;" edge="1" parent="1" source="f4_6dcOlz2rCU05LCN-K-1" target="f4_6dcOlz2rCU05LCN-K-2">
          <mxGeometry width="50" height="50" relative="1" as="geometry">
            <mxPoint x="310" y="16.666666666666742" as="sourcePoint" />
            <mxPoint x="660" y="165.15499999999997" as="targetPoint" />
          </mxGeometry>
        </mxCell>
      </root>
    </mxGraphModel>
  </diagram>
</mxfile>
